<svg id="Layer_1" data-name="Layer 1" xmlns="http://www.w3.org/2000/svg" viewBox="0 0 1024 1024"><defs><style>.cls-1{fill:#333;}</style></defs><polygon class="cls-1" points="654.46 250.15 633.58 286.33 591.88 286.33 571 250.19 591.88 214.04 633.61 214.04 654.46 250.15"/><polygon class="cls-1" points="692.95 819.2 609.52 819.2 588.64 783.05 567.79 746.91 546.91 710.77 526.07 674.63 505.18 638.48 484.3 602.34 463.46 566.2 442.57 530.05 421.73 493.91 400.85 457.77 380 421.66 359.12 385.48 338.24 349.34 317.39 385.48 296.51 421.63 275.66 457.77 254.78 493.91 275.66 530.05 296.51 566.23 317.39 602.34 338.24 638.48 359.12 674.63 380 710.77 400.85 746.91 421.73 783.05 442.57 819.2 359.12 819.2 338.27 783.05 317.39 746.91 296.51 710.77 275.66 674.63 254.78 638.48 233.93 602.34 213.05 566.2 192.17 530.05 171.32 493.91 192.2 457.77 213.05 421.63 233.93 385.48 254.78 349.34 275.66 313.2 296.51 277.09 317.39 240.95 338.24 204.8 359.12 240.95 379.96 277.09 400.85 313.2 421.73 349.38 442.57 385.48 463.46 421.66 484.3 457.77 505.18 493.94 526.03 530.05 546.91 566.23 567.76 602.34 588.64 638.48 609.49 674.63 630.37 710.77 651.22 746.91 672.1 783.05 692.95 819.2"/><polygon class="cls-1" points="852.68 595.34 831.8 631.48 810.95 667.63 810.95 667.66 790.07 703.77 769.22 739.91 748.34 776.05 727.46 812.2 706.61 776.05 685.73 739.91 664.88 703.77 644 667.63 623.15 631.48 602.27 595.34 581.42 559.2 560.54 523.09 539.66 486.91 518.82 450.77 497.94 414.63 477.09 378.48 456.21 342.34 435.36 306.23 414.51 270.09 393.63 233.91 372.78 197.8 456.21 197.8 477.09 233.95 497.97 270.09 518.82 306.23 539.66 342.34 560.54 378.48 581.39 414.63 602.27 450.8 623.15 486.91 644 523.05 664.88 559.2 685.73 595.34 706.61 631.48 727.49 667.63 748.34 631.48 769.22 595.37 748.34 559.2 727.46 523.05 706.61 486.91 685.73 450.8 664.85 414.63 644 378.52 664.88 342.34 685.76 306.23 706.61 342.34 727.49 378.48 748.34 414.63 769.22 450.77 790.07 486.91 810.95 523.05 831.8 559.2 852.68 595.34"/></svg>