<svg id="Layer_1" data-name="Layer 1" xmlns="http://www.w3.org/2000/svg" viewBox="0 0 1024 1024"><defs><style>.cls-1{fill:#f7f7f8;}</style></defs><polygon class="cls-1" points="654.46 250.15 633.58 286.33 591.88 286.33 571 250.19 591.88 214.04 633.61 214.04 654.46 250.15"/><polygon class="cls-1" points="692.95 819.2 609.52 819.2 588.64 783.05 567.79 746.91 546.91 710.77 526.07 674.63 505.18 638.48 484.3 602.34 463.46 566.2 442.57 530.05 421.73 493.91 400.85 457.77 380 421.66 359.12 385.48 338.24 349.34 317.39 385.48 296.51 421.63 275.66 457.77 254.78 493.91 275.66 530.05 296.51 566.23 317.39 602.34 338.24 638.48 359.12 674.63 380 710.77 400.85 746.91 421.73 783.05 442.57 819.2 359.12 819.2 338.27 783.05 317.39 746.91 296.51 710.77 275.66 674.63 254.78 638.48 233.93 602.34 213.05 566.2 192.17 530.05 171.32 493.91 192.2 457.77 213.05 421.63 233.93 385.48 254.78 349.34 275.66 313.2 296.51 277.09 317.39 240.95 338.24 204.8 359.12 240.95 379.96 277.09 400.85 313.2 421.73 349.38 442.57 385.48 463.46 421.66 484.3 457.77 505.18 493.94 526.03 530.05 546.91 566.23 567.76 602.34 588.64 638.48 609.49 674.63 630.37 710.77 651.22 746.91 672.1 783.05 692.95 819.2"/><polygon class="cls-1" points="852.68 594.34 831.8 630.48 810.95 666.63 810.95 666.66 790.07 702.77 769.22 738.91 748.34 775.05 727.46 811.2 706.61 775.05 685.73 738.91 664.88 702.77 644 666.63 623.15 630.48 602.27 594.34 581.42 558.2 560.54 522.09 539.66 485.91 518.82 449.77 497.94 413.63 477.09 377.48 456.21 341.34 435.36 305.23 414.51 269.09 393.63 232.91 372.78 196.8 456.21 196.8 477.09 232.95 497.97 269.09 518.82 305.23 539.66 341.34 560.54 377.48 581.39 413.63 602.27 449.8 623.15 485.91 644 522.05 664.88 558.2 685.73 594.34 706.61 630.48 727.49 666.63 748.34 630.48 769.22 594.37 748.34 558.2 727.46 522.05 706.61 485.91 685.73 449.8 664.85 413.63 644 377.52 664.88 341.34 685.76 305.23 706.61 341.34 727.49 377.48 748.34 413.63 769.22 449.77 790.07 485.91 810.95 522.05 831.8 558.2 852.68 594.34"/></svg>